<?xml version="1.0" encoding="UTF-8" standalone="no"?>
<!-- Created with Inkscape (http://www.inkscape.org/) -->

<svg
   version="1.1"
   id="svg824"
   xml:space="preserve"
   width="3212.5984"
   height="4157.478"
   viewBox="0 0 3212.5984 4157.478"
   sodipodi:docname="resume.svg"
   inkscape:version="1.1.1 (3bf5ae0d25, 2021-09-20)"
   xmlns:inkscape="http://www.inkscape.org/namespaces/inkscape"
   xmlns:sodipodi="http://sodipodi.sourceforge.net/DTD/sodipodi-0.dtd"
   xmlns="http://www.w3.org/2000/svg"
   xmlns:svg="http://www.w3.org/2000/svg"><defs
     id="defs828" /><sodipodi:namedview
     id="namedview826"
     pagecolor="#ffffff"
     bordercolor="#cccccc"
     borderopacity="1"
     inkscape:pageshadow="0"
     inkscape:pageopacity="1"
     inkscape:pagecheckerboard="0"
     showgrid="false"
     inkscape:zoom="0.45254836"
     inkscape:cx="1175.565"
     inkscape:cy="1229.7028"
     inkscape:window-width="1920"
     inkscape:window-height="1017"
     inkscape:window-x="1912"
     inkscape:window-y="-8"
     inkscape:window-maximized="1"
     inkscape:current-layer="g247388" /><g
     id="g830"
     inkscape:groupmode="layer"
     inkscape:label="TommyVo_Resume"
     transform="matrix(1.3333333,0,0,1.3333333,0,1.1327029e-4)"><path
       d="M 0,3118.1102 H 2409.449 V 0 H 0 Z"
       style="fill:#ffffff;fill-opacity:1;fill-rule:nonzero;stroke:none;stroke-width:3.28484"
       id="path834-3" /><path
       d="M 0,0 H 2409.449 V 288.977 H 0 Z"
       style="fill:#666666;fill-opacity:1;fill-rule:nonzero;stroke:none"
       id="path834" /><text
       style="font-variant:normal;font-weight:normal;font-size:107.319px;font-family:'Century Gothic';-inkscape-font-specification:CenturyGothic;writing-mode:lr-tb;fill:#ffffff;fill-opacity:1;fill-rule:nonzero;stroke:none"
       id="text838"
       x="118.19371"
       y="148.4476"><tspan
         x="118.19371 163.80428 257.06448 355.58331 453.78021 517.20575 546.82581 622.1637"
         y="148.4476"
         sodipodi:role="line"
         id="tspan836">TOMMY VO</tspan></text><text
       style="font-variant:normal;font-weight:normal;font-size:59.7576px;font-family:'Century Gothic';-inkscape-font-specification:CenturyGothic;writing-mode:lr-tb;fill:#ffffff;fill-opacity:1;fill-rule:nonzero;stroke:none"
       id="text842"
       x="119.13514"
       y="220.79459"><tspan
         x="119.13514 148.89442 187.97589 206.68002 226.69881 276.35739 317.17181 335.09909 373.88177 390.37488 434.8345 473.61719 506.7229 545.50562 557.45709 596.53857 637.29327 676.07593"
         y="220.79459"
         sodipodi:role="line"
         id="tspan840">Software Developer</tspan></text><text
       style="font-variant:normal;font-weight:normal;font-size:34.4489px;font-family:'Century Gothic';-inkscape-font-specification:CenturyGothic;writing-mode:lr-tb;fill:#000000;fill-opacity:1;fill-rule:nonzero;stroke:none"
       id="text936-8"
       x="1525.3466"
       y="506.21045"><tspan
         sodipodi:role="line"
         id="tspan934-2"
         x="1525.3466"
         y="506.21045" /></text><g
       id="g1010"
       transform="matrix(1,0,0,0.99939232,0,1.0356544)"><path
         d="M 1782.484,3118.109 V 288.977"
         style="fill:none;stroke:#000000;stroke-width:1.72062;stroke-linecap:square;stroke-linejoin:miter;stroke-miterlimit:13.8;stroke-dasharray:none;stroke-opacity:1"
         id="path1012" /></g><g
       id="g247602"
       transform="translate(0,8.2592813)"><text
         style="font-variant:normal;font-weight:normal;font-size:62.8313px;font-family:'Century Gothic';-inkscape-font-specification:CenturyGothic;writing-mode:lr-tb;fill:#000000;fill-opacity:1;fill-rule:nonzero;stroke:none"
         id="text874"
         x="1810.9177"
         y="984.43005"><tspan
           x="1810.9177 1842.2076 1873.6862 1886.2524 1898.8187 1911.3849"
           y="984.43005"
           sodipodi:role="line"
           id="tspan872">Skills</tspan></text><g
         id="g876"
         transform="translate(0,100.83921)"><path
           d="M 1812.598,917.34 H 2376.57"
           style="fill:none;stroke:#000000;stroke-width:1.70079;stroke-linecap:square;stroke-linejoin:miter;stroke-miterlimit:13.8;stroke-dasharray:none;stroke-opacity:1"
           id="path878" /></g></g><text
       style="font-variant:normal;font-weight:bold;font-size:34.4489px;font-family:'Century Gothic';-inkscape-font-specification:CenturyGothic-Bold;writing-mode:lr-tb;fill:#000000;fill-opacity:1;fill-rule:nonzero;stroke:none"
       id="text882"
       x="1812.6809"
       y="1084.9987"><tspan
         x="1812.6809 1843.6505 1865.6978 1888.4341 1898.0453 1922.1595 1944.2068 1963.4982 1985.5454 1993.7788 2015.826 2038.5624 2070.9099 2092.957 2113.6265"
         y="1084.9987"
         sodipodi:role="line"
         id="tspan880">Web Development</tspan></text><text
       style="font-variant:normal;font-weight:normal;font-size:34.4483px;font-family:'Century Gothic';-inkscape-font-specification:CenturyGothic;writing-mode:lr-tb;fill:#000000;fill-opacity:1;fill-rule:nonzero;stroke:none"
       id="text888"
       x="1850.7155"
       y="1128.3691"><tspan
         x="1850.7155 1876.1727 1893.328 1913.6869 1923.1946 1948.6519 1967.1162 1981.7567 1991.2644 2000.6688 2024.3004 2038.9409 2070.5645 2086.3418 2095.8496 2105.3572 2121.9268 2145.4551 2164.5393 2188.0676 2201.4336 2223.6873 2234.0217 2240.9114 2264.405 2276.0486"
         sodipodi:role="line"
         id="tspan884"
         y="1128.3691">ASP.NET, HTML, Javascript,</tspan><tspan
         x="1812.6844 1850.6809 1857.6738 1887.6783 1908.5885 1930.9454 1941.1765 1959.7441 1969.252 1978.7596 2006.7317 2023.7836 2040.9388 2050.4465 2059.9543 2084.137 2105.0471 2127.3008 2143.8704 2161.0256 2170.5334 2180.041 2199.8145 2222.3435 2244.8728 2256.4128 2269.7788 2281.4224 2291.7568 2315.2852"
         y="1171.4296"
         sodipodi:role="line"
         id="tspan886"> jQuery, CSS, VueJS, Bootstrap</tspan></text><text
       style="font-variant:normal;font-weight:bold;font-size:34.4489px;font-family:'Century Gothic';-inkscape-font-specification:CenturyGothic-Bold;writing-mode:lr-tb;fill:#000000;fill-opacity:1;fill-rule:nonzero;stroke:none"
       id="text892"
       x="1812.6809"
       y="1239.085"><tspan
         x="1812.6809 1831.9723 1842.9614 1865.0088 1887.745 1898.7343 1921.4705 1953.7147 1986.0623 1994.2955 2014.9648"
         y="1239.085"
         sodipodi:role="line"
         id="tspan890">Programming</tspan></text><text
       style="font-variant:normal;font-weight:normal;font-size:34.4483px;font-family:'Century Gothic';-inkscape-font-specification:CenturyGothic;writing-mode:lr-tb;fill:#000000;fill-opacity:1;fill-rule:nonzero;stroke:none"
       id="text896"
       x="1850.7155"
       y="1282.4554"><tspan
         x="1850.7155 1878.6874 1903.4902 1912.9979 1922.5056 1939.0753 1962.6035 1981.6879"
         y="1282.4554"
         sodipodi:role="line"
         id="tspan894">C#, Java</tspan></text><g
       id="g247500"
       transform="translate(0,9.2e-5)"><text
         style="font-variant:normal;font-weight:normal;font-size:62.8313px;font-family:'Century Gothic';-inkscape-font-specification:CenturyGothic;writing-mode:lr-tb;fill:#000000;fill-opacity:1;fill-rule:nonzero;stroke:none"
         id="text850"
         x="1806.2852"
         y="384.52295"><tspan
           x="1806.2852 1843.4185 1884.1959 1903.0453 1927.2354 1968.327 2006.5913 2049.5051 2062.0713 2079.4128 2093.4241 2131.6885 2151.3545"
           y="384.52295"
           sodipodi:role="line"
           id="tspan848">Personal Info</tspan></text><g
         id="g868"><path
           d="M 1812.598,418.27 H 2376.57"
           style="fill:none;stroke:#000000;stroke-width:1.70079;stroke-linecap:square;stroke-linejoin:miter;stroke-miterlimit:13.8;stroke-dasharray:none;stroke-opacity:1"
           id="path870" /></g><g
         id="g926"><path
           d="M 38.898,418.25 H 1743.586"
           style="fill:none;stroke:#000000;stroke-width:1.72062;stroke-linecap:square;stroke-linejoin:miter;stroke-miterlimit:13.8;stroke-dasharray:none;stroke-opacity:1"
           id="path928" /></g><text
         style="font-variant:normal;font-weight:normal;font-size:62.8313px;font-family:'Century Gothic';-inkscape-font-specification:CenturyGothic;writing-mode:lr-tb;fill:#000000;fill-opacity:1;fill-rule:nonzero;stroke:none"
         id="text932"
         x="42.898842"
         y="384.52304"><tspan
           x="42.898842 76.576416 119.61585 157.75446 198.34346 241.25723 262.30573 275.06049 316.15213"
           y="384.52304"
           sodipodi:role="line"
           id="tspan930">Education</tspan></text></g><text
       style="font-variant:normal;font-weight:bold;font-size:40.6511px;font-family:'Century Gothic';-inkscape-font-specification:CenturyGothic-Bold;writing-mode:lr-tb;fill:#000000;fill-opacity:1;fill-rule:nonzero;stroke:none"
       id="text962"
       x="32.548595"
       y="2967.2659"><tspan
         x="32.548595 56.126232 82.142937 99.988762 112.14344 123.36314 134.7048 159.09547 170.43713 191.5757 203.73038 230.5601 242.59283 268.60953 279.95117 309.99234 342.35062 369.18033 382.14804 408.97775 420.31943 460.97052 472.31216 500.646 526.78467 539.75238 549.46796 568.12683 594.14349 618.53418 629.75391 659.79504 686.62476 713.45447 724.79614 756.34143 780.73206 807.56177 817.2774 826.99304 853.0097 877.40039 904.2301"
         y="2967.2659"
         sodipodi:role="line"
         id="tspan960">Best In State Award — Verizon App Challenge</tspan></text><text
       style="font-variant:normal;font-weight:normal;font-size:34.4483px;font-family:'Century Gothic';-inkscape-font-specification:CenturyGothic;writing-mode:lr-tb;fill:#000000;fill-opacity:1;fill-rule:nonzero;stroke:none"
       id="text968"
       x="73.914192"
       y="3016.1055"><tspan
         x="73.914192 92.481819 116.01001 126.3445 147.32352 169.57712 193.17419 202.68193 221.76628 240.85065 250.35837 269.44275 288.5271 307.61145 317.11917 327.90149 350.43069 360.66183 370.16956 402.4476 420.9119 430.41962 443.78558 466.03918 487.01819 509.44403 531.97321 538.86292 548.37061 557.87836 581.40656 604.93469 628.42847 638.03955 649.68304 670.66205 692.91565 702.4234 725.91711 748.27411 761.64001 773.28357 782.79126 815.06934 837.49518 860.98889 867.8786 874.76825 897.12518 906.63293 930.16113 953.65485 977.14856 984.03827 990.92792 1013.1815 1036.7097 1048.3533 1055.2429 1077.6687 1098.6477 1108.1555 1130.4091 1152.835 1173.814 1196.0675 1218.3212 1241.8148"
         y="3016.1055"
         sodipodi:role="line"
         id="tspan964">Earned $5,000 for my school. Had the best mobile application concept</tspan><tspan
         x="35.883232 73.879707 96.408897 117.31902 128.96254 138.36693 160.8961 171.67842 181.18616 204.71434 211.604 218.49367 228.00139 251.49513 275.02332 285.35782 297.00134 303.89099 326.14459 333.03424 356.52798 380.05618 400.93185 412.67871 426.04468 435.5524 464.17892 471.0686 482.71213 503.69113 510.58078 531.55981 541.06757 552.60773 573.58673 595.94366 605.45142 618.81732 630.46088 653.98907 665.63257 687.9895 697.49725 707.005 730.5332 751.51221 775.00592 784.51367 808.1452 831.74231 850.82666 874.3548 895.33386 917.48407 939.84106 963.43811 972.94586 984.58936 1007.0152 1016.5229 1037.502 1061.0302 1072.6737 1079.5634 1102.0925 1123.0715 1146.5997 1153.4894 1166.8553 1176.363 1185.8708 1198.5823 1213.2228 1235.4763 1259.0045 1291.2826 1300.7903 1323.3195 1333.9985 1343.5062 1362.5906"
         y="3059.1658"
         sodipodi:role="line"
         id="tspan966"> out of all participants within the state, and advanced to nationals. (Team of 3)</tspan></text><text
       style="font-variant:normal;font-weight:normal;font-size:34.4489px;font-family:'Century Gothic';-inkscape-font-specification:CenturyGothic;writing-mode:lr-tb;fill:#000000;fill-opacity:1;fill-rule:nonzero;stroke:none"
       id="text972"
       x="1557.8691"
       y="2962.6143"><tspan
         x="1557.8691 1575.0248 1598.5189 1608.8535 1615.7433 1636.7228 1659.769 1669.277 1688.3616 1707.4463 1726.531"
         y="2962.6143"
         sodipodi:role="line"
         id="tspan970">Spring 2016</tspan></text><text
       style="font-variant:normal;font-weight:normal;font-size:62.8313px;font-family:'Century Gothic';-inkscape-font-specification:CenturyGothic;writing-mode:lr-tb;fill:#000000;fill-opacity:1;fill-rule:nonzero;stroke:none"
       id="text976"
       x="31.115269"
       y="2528.6692"><tspan
         x="31.115269 74.029045 115.12071 153.38498 194.28815 213.13753 237.51608 254.85751 302.35797 319.51093 365.94324 418.15607 461.06982 479.91922 522.95868"
         y="2528.6692"
         sodipodi:role="line"
         id="tspan974">Honors &amp; Awards</tspan></text><g
       id="g978"
       transform="matrix(1.0000058,0,0,1,-2.194813e-4,15.869424)"><path
         d="M 38.898,2546.547 H 1743.586"
         style="fill:none;stroke:#000000;stroke-width:1.72062;stroke-linecap:square;stroke-linejoin:miter;stroke-miterlimit:13.8;stroke-dasharray:none;stroke-opacity:1"
         id="path980" /></g><text
       style="font-variant:normal;font-weight:bold;font-size:40.6511px;font-family:'Century Gothic';-inkscape-font-specification:CenturyGothic-Bold;writing-mode:lr-tb;fill:#000000;fill-opacity:1;fill-rule:nonzero;stroke:none"
       id="text984"
       x="32.548595"
       y="2797.1963"><tspan
         x="32.548595 43.890251 68.280907 94.297615 104.01322 128.40388 146.12776 155.84337 178.608 188.32361 200.47829 224.05592 235.27563 265.31677 297.797 324.62674 337.59442 364.42416 375.76581 416.4169 427.75858 447.23044 473.24716 499.95493 525.97162 538.93933 565.76904 575.48468 586.82629 610.40393 636.42065 654.14453 680.16125 693.12897 715.89355 741.91028 753.25189 776.82953 803.6593 828.04993 851.62756 862.96924 888.98596 900.32758 911.66925 936.87292 963.70264 987.97137 1005.8172 1032.647 1050.2896 1061.6311 1093.2983 1103.0139 1115.0468 1138.6244 1149.9659 1181.6332 1207.6499 1234.4796 1260.4963 1277.4072 1304.2369 1321.2698 1338.3025 1362.6932 1388.7098"
         y="2797.1963"
         sodipodi:role="line"
         id="tspan982">Inclusivity Award — Federal Reserve Bank of Kansas City Code-a-Thon</tspan></text><text
       style="font-variant:normal;font-weight:normal;font-size:34.4483px;font-family:'Century Gothic';-inkscape-font-specification:CenturyGothic;writing-mode:lr-tb;fill:#000000;fill-opacity:1;fill-rule:nonzero;stroke:none"
       id="text990"
       x="73.914192"
       y="2846.0361"><tspan
         x="73.914192 88.554718 109.53373 116.42339 129.78934 139.29706 162.82524 191.45178 214.97997 225.31445 248.91154 258.41928 265.30893 278.6749 288.18262 311.67636 322.01083 344.36777 357.73373 380.09067 401.06967 412.7132 434.9668 458.5639 468.07162 479.71515 502.24432 511.75208 523.39563 544.37463 566.62823 576.13593 587.77948 610.13641 633.66461 665.94263 675.45038 687.09393 707.9696 731.49774 743.1413 752.64905 775.00598 795.98499 819.13422 842.66241 865.81171 888.16864 911.76569 921.27344 944.80164 954.30939 977.90643 984.79608 1003.8805 1026.2374 1036.5719 1049.9379 1072.2948 1081.8025 1092.137 1115.6652 1136.6442 1159.6901 1182.0471 1191.5548 1214.084"
         y="2846.0361"
         sodipodi:role="line"
         id="tspan986">This award is presented to the team that engaged a diverse range of</tspan><tspan
         x="35.883232 73.879707 106.15776 128.51471 160.68942 184.18315 206.5401 216.87459 230.24052 239.64491 246.63792 267.61694 277.12466 287.90698 310.33282 323.69876 335.34229 357.69925 367.93039 374.9234 395.9024 419.05167 428.45605 450.70966 473.23883 480.12848 487.01816 510.54633 534.0401 556.56927 566.90375 590.43195 602.0755 608.96515 631.39099 661.91217 685.44037 706.41937 730.01648 739.52417 751.16772 773.42133 797.05286 829.33087 857.95746 880.48663 890.71777 907.97638 917.48407 926.88849 939.59991 954.24042 976.59735 1000.1255 1032.4037 1041.808 1064.3373 1075.1195 1084.5239 1103.6083"
         y="2889.0964"
         sodipodi:role="line"
         id="tspan988"> members in fostering collaborationand teamwork. (Team of 5)</tspan></text><text
       style="font-variant:normal;font-weight:normal;font-size:34.4489px;font-family:'Century Gothic';-inkscape-font-specification:CenturyGothic;writing-mode:lr-tb;fill:#000000;fill-opacity:1;fill-rule:nonzero;stroke:none"
       id="text994"
       x="1605.556"
       y="2792.0737"><tspan
         x="1605.556 1622.2292 1645.7578 1652.6476 1659.5375 1669.0453 1688.13 1707.2147 1726.2994"
         y="2792.0737"
         sodipodi:role="line"
         id="tspan992">Fall 2018</tspan></text><text
       style="font-variant:normal;font-weight:bold;font-size:40.6511px;font-family:'Century Gothic';-inkscape-font-specification:CenturyGothic-Bold;writing-mode:lr-tb;fill:#000000;fill-opacity:1;fill-rule:nonzero;stroke:none"
       id="text998"
       x="34.672417"
       y="2627.127"><tspan
         x="34.672417 57.437031 70.404732 97.234459 108.57612 131.34073 140.93439 167.76411 193.78081 219.79752 231.13918 253.90379 266.87149 276.5871 295.24597 321.26266 332.60434 373.25543 384.59708 405.73566 428.50027 454.51697 467.36273 494.19244 517.77008 529.11176 550.25031 576.26703 587.60864 599.64142 632.12164 658.95135 671.91907 697.93573 709.2774 730.41595 754.80664 781.63635 791.35199 815.74261 841.75934 867.77606 880.74377 890.3374 914.72809 941.5578 952.89948 984.56665 1010.5834 1034.974 1047.1287 1073.0234 1090.8693"
         y="2627.127"
         sodipodi:role="line"
         id="tspan996">3rd Place Prize — Evergy Software Engineering Contest</tspan></text><text
       style="font-variant:normal;font-weight:normal;font-size:34.4483px;font-family:'Century Gothic';-inkscape-font-specification:CenturyGothic;writing-mode:lr-tb;fill:#000000;fill-opacity:1;fill-rule:nonzero;stroke:none"
       id="text1004"
       x="73.914192"
       y="2675.9666"><tspan
         x="73.914192 99.543724 121.90067 135.26662 142.15627 165.30553 186.28455 208.64148 232.23857 241.74629 253.38982 274.36884 296.7258 306.23352 325.21454 335.54901 359.14609 368.65384 392.14758 414.50452 427.87045 439.51398 449.0217 462.38766 484.91684 495.59583 507.23935 535.86591 559.3941 569.72858 592.08551 601.5932 623.9502 644.9292 668.07843 674.96808 695.94714 718.30408 740.55768 750.89215 757.7818 778.7608 801.9101 811.41785 824.78375 847.31293 854.20258 875.0094 886.65289 893.54254 916.07178 937.05078 946.55847 957.34082 979.87 990.10114 999.60889 1011.2524 1032.1281 1054.485 1063.9928 1087.142 1094.0317 1113.116 1135.473 1156.452 1165.9597 1177.6033 1201.1315 1214.4973 1231.756"
         y="2675.9666"
         sodipodi:role="line"
         id="tspan1000">Designed the 3rd best software engineering solution for the given task.</tspan><tspan
         x="35.883232 73.879707 99.336998 127.96354 151.49173 161.82622 185.42329 207.78024 231.37732 240.9884 264.5166 274.02432 296.27792 319.80612 333.0687 354.04773 363.55545 387.04919 397.38367 404.27335 418.87943 441.23636 450.74408 461.42307 483.95224 494.28674 503.79446 526.0481 549.57629 571.8299 592.8089 602.21326 634.49133 656.84827 689.02295 712.51672 734.87366 745.20813 754.61255 777.14172 787.92407 797.43176 809.07532 830.05432 852.41125 861.81567 873.45917 895.8161 919.3443 951.62238 961.13007 970.63782 983.34924 997.98975 1020.2433 1043.7716 1076.0496 1085.5574 1107.9832 1118.7655 1128.2732 1147.3575"
         y="2719.0269"
         sodipodi:role="line"
         id="tspan1002"> Awarded a cash prize for each member of the team. (Team of 3)</tspan></text><text
       style="font-variant:normal;font-weight:normal;font-size:34.4489px;font-family:'Century Gothic';-inkscape-font-specification:CenturyGothic;writing-mode:lr-tb;fill:#000000;fill-opacity:1;fill-rule:nonzero;stroke:none"
       id="text1008"
       x="1606.5483"
       y="2622.0042"><tspan
         x="1606.5483 1623.2216 1646.7501 1653.6399 1660.5297 1670.0376 1689.1223 1708.207 1727.2917"
         y="2622.0042"
         sodipodi:role="line"
         id="tspan1006">Fall 2019</tspan></text><g
       id="g229470"
       transform="translate(0,8.2592813)"><g
         id="g1014"
         transform="translate(0,100.83921)"><path
           d="M 38.898,917.34 H 1743.586"
           style="fill:none;stroke:#000000;stroke-width:1.72062;stroke-linecap:square;stroke-linejoin:miter;stroke-miterlimit:13.8;stroke-dasharray:none;stroke-opacity:1"
           id="path1016" /></g><text
         style="font-variant:normal;font-weight:normal;font-size:62.8313px;font-family:'Century Gothic';-inkscape-font-specification:CenturyGothic;writing-mode:lr-tb;fill:#000000;fill-opacity:1;fill-rule:nonzero;stroke:none"
         id="text1020"
         x="42.898842"
         y="984.43005"><tspan
           x="42.898842 103.15405 144.24573 162.9066 194.38509 211.72653 245.4041 275.50031 318.16275 358.94025 377.78964 390.3559 431.13342 469.39767 509.98669"
           y="984.43005"
           sodipodi:role="line"
           id="tspan1018">Work Experience</tspan></text></g><text
       xml:space="preserve"
       style="font-style:normal;font-weight:normal;font-size:34.9975px;line-height:1.25;font-family:sans-serif;fill:#000000;fill-opacity:1;stroke:none;stroke-width:0.874937"
       x="36.094845"
       y="1626.6667"
       id="text37201-3"><tspan
         sodipodi:role="line"
         id="tspan37199-4"
         style="font-style:normal;font-variant:normal;font-weight:normal;font-stretch:normal;font-family:'Century Gothic';-inkscape-font-specification:'Century Gothic';stroke-width:0.874937"
         x="36.094845"
         y="1626.6667"
         dy="0">Career Pathing ATS</tspan><tspan
         sodipodi:role="line"
         style="font-style:normal;font-variant:normal;font-weight:normal;font-stretch:normal;font-family:'Century Gothic';-inkscape-font-specification:'Century Gothic';stroke-width:0.874937"
         x="36.094845"
         y="1670.5696"
         id="tspan37203-2">    Application used by NW students &amp; staff to set presentation events and track their attendances.</tspan><tspan
         sodipodi:role="line"
         style="font-style:normal;font-variant:normal;font-weight:normal;font-stretch:normal;font-family:'Century Gothic';-inkscape-font-specification:'Century Gothic';stroke-width:0.874937"
         x="36.094845"
         y="1714.4724"
         id="tspan37205-3">    Developed from scratch the web application and user interface.</tspan><tspan
         sodipodi:role="line"
         style="font-style:normal;font-variant:normal;font-weight:normal;font-stretch:normal;font-family:'Century Gothic';-inkscape-font-specification:'Century Gothic';stroke-width:0.874937"
         x="36.094845"
         y="1758.3752"
         id="tspan37207-5">    • ASP.NET / C#</tspan><tspan
         sodipodi:role="line"
         style="font-style:normal;font-variant:normal;font-weight:normal;font-stretch:normal;font-family:'Century Gothic';-inkscape-font-specification:'Century Gothic';stroke-width:0.874937"
         x="36.094845"
         y="1802.278"
         id="tspan37209-3">    • HTML / CSS / Bootstrap</tspan><tspan
         sodipodi:role="line"
         style="font-style:normal;font-variant:normal;font-weight:normal;font-stretch:normal;font-family:'Century Gothic';-inkscape-font-specification:'Century Gothic';stroke-width:0.874937"
         x="36.094845"
         y="1846.1808"
         id="tspan37211-4">    • Javascript / jQuery / VueJS</tspan><tspan
         sodipodi:role="line"
         style="font-style:normal;font-variant:normal;font-weight:normal;font-stretch:normal;font-family:'Century Gothic';-inkscape-font-specification:'Century Gothic';stroke-width:0.874937"
         x="36.094845"
         y="1890.0836"
         id="tspan42499-7">    • MySQL / SQLite</tspan></text><g
       id="g247982"><text
         style="font-variant:normal;font-weight:bold;font-size:40.6511px;font-family:'Century Gothic';-inkscape-font-specification:CenturyGothic-Bold;writing-mode:lr-tb;fill:#000000;fill-opacity:1;fill-rule:nonzero;stroke:none"
         id="text1088"
         x="38.305172"
         y="1090.5924"><tspan
           x="38.305172 66.760941 92.777641 115.54226 141.55896 151.27458 177.29129 204.121 230.13771 243.10541 254.44707"
           y="1090.5924"
           sodipodi:role="line"
           id="tspan1086">Developer I</tspan></text><text
         style="font-variant:normal;font-weight:normal;font-size:34.4489px;font-family:'Century Gothic';-inkscape-font-specification:CenturyGothic;writing-mode:lr-tb;fill:#000000;fill-opacity:1;fill-rule:nonzero;stroke:none"
         id="text1092"
         x="1360.5443"
         y="1085.4696"><tspan
           x="1360.5443 1386.0021 1406.9125 1430.0621 1450.9727 1464.3389 1475.9825 1485.4905 1504.6785 1523.7632 1542.8479 1561.9325 1571.4404 1582.8774 1592.3854 1617.9464 1641.4406 1651.7753 1658.665 1665.5548 1675.0627 1694.1475 1713.3354 1732.4202"
           y="1085.4696"
           sodipodi:role="line"
           id="tspan1090">August 2020 - April 2021</tspan></text></g><text
       style="font-variant:normal;font-weight:bold;font-size:34.4489px;font-family:'Century Gothic';-inkscape-font-specification:CenturyGothic-Bold;writing-mode:lr-tb;white-space:pre;inline-size:368;fill:#000000;fill-opacity:1;fill-rule:nonzero;stroke:none"
       id="text1096"
       x="36.091324"
       y="1145.7887"
       xml:space="preserve"><tspan
         x="36.091324"
         y="1145.7887"
         id="tspan8066">@Yellow Corp.</tspan></text><text
       style="font-variant:normal;font-weight:normal;font-size:34.4483px;font-family:'Century Gothic';-inkscape-font-specification:CenturyGothic;writing-mode:lr-tb;fill:#000000;fill-opacity:1;fill-rule:nonzero;stroke:none"
       id="text1112"
       x="36.094845"
       y="1186.6431"><tspan
         x="36.094845 67.718384 90.247566 113.84465 136.09825 146.43274 167.41176 174.30142 188.9075 212.43568 224.07922 230.96887 253.49806 274.47708 283.88147 298.522 320.87894 344.40714"
         y="1186.6431"
         sodipodi:role="line"
         id="tspan1098">Modernization Team</tspan><tspan
         x="36.094845 74.091316 107.12724 129.65642 139.99092 157.24951 179.60646 203.20355 212.71127 219.60094 240.47661 249.98434 273.51251 294.49155 303.89594 329.35321 352.50247 359.39212 366.41959 388.77652 398.28427 409.9278 432.1814 455.70956 487.98764 497.49536 509.13889 531.66809 541.17578 551.40698 573.76392 602.39044 612.72491 619.61456 631.25812 653.61505 663.1228 674.7663 695.7453 718.10229 727.60999 749.86359 770.84259 782.48615 789.37579 799.71027 822.06726 831.57495 863.85303 887.38123 894.27087 915.14655 925.92883 936.26337 959.79156 991.96625 1014.3232 1023.8309 1034.6132 1044.9478 1067.4769 1099.755 1109.1593 1140.783 1163.3121 1186.9092 1209.1627 1216.0525 1225.5602 1244.6445 1263.7289 1282.8132 1292.3209 1303.9645 1326.4937 1336.0015 1352.571 1376.0992 1395.1836 1418.7118"
         y="1229.7035"
         sodipodi:role="line"
         id="tspan1100"> Worked in an Agile team to rewrite the entire mainframe from Model 204 to Java.</tspan><tspan
         x="36.094845 74.091316 81.876633 114.15469 137.64844 147.98293 170.40877 189.49312 211.85007 235.44716 244.95488 267.20847 289.73767 313.33475 335.69171 345.19943 367.45303 378.23535 389.01767 395.90732 418.16092 425.0506 447.40753 468.38657 490.5368 509.0011 518.50879 530.15234 552.57819 562.08594 584.33954 605.1463 616.78979 626.29755 649.89465 672.42383 701.05035 722.02936 731.53711 754.06628 775.04529 784.44971 794.78418 815.69427 836.56995 848.2135 855.10315 887.38123 909.63483 919.14252 942.67072 963.64972 987.24683 996.75458 1019.0082 1041.5374 1054.9033 1066.5469"
         y="1272.7639"
         sodipodi:role="line"
         id="tspan1102"> Improved code efficiency to cut down on runtime and cost.</tspan><tspan
         x="36.094845 74.091316 94.932541 132.99791 149.56754 173.09573 192.18008"
         y="1315.8243"
         sodipodi:role="line"
         id="tspan1104"> • Java</tspan><tspan
         x="36.094845 74.091316 94.932541 132.99791 164.62144 187.15063 210.74773 233.10468 239.99432 249.50206 268.58643 287.67078"
         y="1358.8846"
         sodipodi:role="line"
         id="tspan1106"> • Model 204</tspan><tspan
         x="36.094845 74.091316 94.932541 132.99791 150.15317 173.64691 183.9814 190.87106 211.85007 234.89598 244.40372 264.17703 287.70523 299.34875 321.60236"
         y="1401.9451"
         sodipodi:role="line"
         id="tspan1108"> • Spring Batch</tspan><tspan
         x="36.094845 74.091316 94.932541 132.99791 150.15317 180.15764"
         y="1445.0055"
         sodipodi:role="line"
         id="tspan1110"> • SQL</tspan></text><path
       d="m 1828.727,712.50957 c -7.832,-3.071 -13.352,-9.743 -14.836,-17.934 -0.399,-2.203 -0.399,-5.859 0,-8.051 1.82,-10.039 9.812,-17.75 19.98,-19.277 1.731,-0.258 5.215,-0.258 6.942,0 2.519,0.379 4.656,1.035 6.941,2.137 9.809,4.718 15.141,15.535 12.859,26.093 -0.57,2.641 -1.828,5.664 -3.281,7.875 -2.164,3.305 -5.352,6.184 -8.848,7.996 -1.57,0.817 -3.554,1.614 -4.004,1.614 -0.367,0 -0.902,-0.27 -1.023,-0.52 -0.059,-0.117 -0.137,-2.168 -0.176,-4.551 -0.07,-4.078 -0.09,-4.382 -0.367,-5.07 -0.164,-0.398 -0.476,-0.977 -0.695,-1.285 l -0.399,-0.555 0.7,-0.086 c 4.101,-0.527 7.171,-2.336 8.66,-5.105 1.437,-2.664 1.808,-6.922 0.847,-9.668 -0.308,-0.887 -1.047,-2.184 -1.57,-2.75 -0.262,-0.285 -0.262,-0.321 -0.051,-1.371 0.121,-0.594 0.219,-1.371 0.219,-1.731 0,-0.808 -0.312,-2.472 -0.586,-3.125 -0.18,-0.429 -0.258,-0.488 -0.672,-0.488 -1.211,0 -3.308,0.766 -5.086,1.855 l -0.933,0.575 -1.535,-0.313 c -1.336,-0.273 -1.911,-0.316 -4.469,-0.316 -2.571,0 -3.129,0.039 -4.477,0.316 l -1.539,0.32 -0.789,-0.503 c -1.777,-1.141 -4.152,-2 -5.262,-1.907 -0.453,0.035 -0.496,0.082 -0.714,0.739 -0.54,1.628 -0.614,3.578 -0.192,4.988 0.18,0.594 0.176,0.605 -0.246,1.094 -0.527,0.609 -1.191,1.839 -1.535,2.839 -0.418,1.219 -0.563,2.817 -0.402,4.524 0.527,5.652 3.234,8.68 8.796,9.824 0.688,0.141 1.399,0.258 1.582,0.258 h 0.336 l -0.375,0.488 c -0.425,0.563 -0.984,1.84 -0.988,2.278 -0.012,0.765 -2.641,1.246 -4.215,0.773 -0.926,-0.277 -1.863,-1.047 -2.609,-2.137 -0.844,-1.23 -1.695,-1.992 -2.598,-2.328 -1.125,-0.422 -2.328,-0.324 -2.328,0.188 0,0.101 0.281,0.414 0.629,0.695 1.41,1.148 1.996,1.852 2.656,3.176 0.836,1.676 1.426,2.34 2.586,2.918 1.461,0.734 3.106,0.902 5.242,0.539 l 0.5,-0.086 v 2.281 c 0,2.434 -0.082,2.832 -0.621,3.078 -0.496,0.227 -0.812,0.18 -2.051,-0.304 v 0 z"
       style="fill:#000000;fill-opacity:1;fill-rule:nonzero;stroke:none"
       id="path862" /><text
       style="font-variant:normal;font-weight:normal;font-size:34.2218px;font-family:'Century Gothic';-inkscape-font-specification:CenturyGothic;writing-mode:lr-tb;fill:#000000;fill-opacity:1;fill-rule:nonzero;stroke:none"
       id="text866"
       x="1878.8416"
       y="627.35718"><tspan
         sodipodi:role="line"
         id="tspan864"
         y="627.35718"
         x="1878.8416 1897.8004 1920.1814 1931.7484 1954.0269 1986.0927 2018.1584 2036.5013 2045.8439 2067.9512 2090.3323">votommy.com</tspan></text><text
       style="font-variant:normal;font-weight:normal;font-size:34.2218px;font-family:'Century Gothic';-inkscape-font-specification:CenturyGothic;writing-mode:lr-tb;fill:#000000;fill-opacity:1;fill-rule:nonzero;stroke:none"
       id="text866-2"
       x="1877.4714"
       y="699.28229"><tspan
         sodipodi:role="line"
         id="tspan864-4"
         x="1877.4714"
         y="699.28229">github.com/votommy</tspan></text><text
       style="font-variant:normal;font-weight:normal;font-size:34.2218px;font-family:'Century Gothic';-inkscape-font-specification:CenturyGothic;writing-mode:lr-tb;fill:#000000;fill-opacity:1;fill-rule:nonzero;stroke:none"
       id="text866-7"
       x="1877.9894"
       y="557.73737"><tspan
         sodipodi:role="line"
         id="tspan864-0"
         x="1877.9894"
         y="557.73737">email@votommy.com</tspan></text><path
       d="m 1835.691,495.94257 c -1.363,-3.266 -2.418,-5.098 -3.293,-5.726 -4.242,-3.04 -6.261,-4.676 -8.082,-6.555 -7.949,-8.188 -6.992,-21.285 2.032,-27.879 3.832,-2.797 5.523,-3.301 11.082,-3.301 4.91,0 4.933,0 7.797,1.403 9.734,4.761 13.339,15.804 8.347,25.585 -1.176,2.309 -5.105,6.34 -8.484,8.707 -3.289,2.309 -4.301,3.497 -5.559,6.536 -1.062,2.562 -1.426,3.031 -2.359,3.031 -0.516,0 -0.953,-0.531 -1.481,-1.801 z m 3.102,-20.172 c 0.402,0 1.367,-0.582 2.148,-1.297 1.36,-1.246 1.414,-1.39 1.414,-3.816 0,-2.363 -0.078,-2.594 -1.214,-3.609 -0.668,-0.598 -1.871,-1.282 -2.672,-1.52 -2.141,-0.644 -4.684,0.602 -5.758,2.82 -0.93,1.926 -0.949,2.418 -0.172,4.364 0.781,1.961 3.484,3.691 5.016,3.214 0.277,-0.085 0.836,-0.156 1.238,-0.156 z"
       style="fill:#000000;fill-opacity:1;fill-rule:nonzero;stroke:none"
       id="path1114" /><path
       d="m 1836.105,549.46957 c -0.511,-0.293 -2.613,-2.183 -5.64,-5.078 -0.656,-0.629 -4.676,-4.371 -5.793,-5.398 -0.172,-0.156 -1.453,-1.359 -2.852,-2.672 -1.398,-1.312 -3.015,-2.805 -3.601,-3.312 -0.582,-0.512 -1.156,-1.079 -1.278,-1.262 -0.211,-0.313 0.809,-0.332 20.567,-0.324 l 20.789,0.003 -1.043,0.973 c -3.246,3.031 -5.832,5.453 -6.527,6.121 -0.434,0.414 -1.637,1.524 -2.672,2.461 -1.668,1.512 -2.543,2.336 -5.961,5.613 -0.473,0.454 -1.426,1.321 -2.117,1.926 -1.122,0.985 -1.368,1.114 -2.266,1.199 -0.758,0.071 -1.152,0.008 -1.606,-0.25 z"
       style="fill:#000000;fill-opacity:1;fill-rule:nonzero;stroke:none"
       id="path1116" /><path
       d="m 1813.82,561.78257 c -0.215,-0.211 -0.152,-27.109 0.063,-27.242 0.258,-0.16 0.797,0.285 3.762,3.09 1.39,1.316 2.703,2.546 2.914,2.726 0.211,0.184 1.414,1.309 2.675,2.496 3.305,3.11 4.239,3.981 8.243,7.696 1.07,0.988 2.382,2.046 2.921,2.355 0.911,0.516 1.125,0.559 2.985,0.566 1.644,0.012 2.137,-0.054 2.746,-0.367 0.41,-0.207 0.785,-0.422 0.84,-0.48 0.051,-0.055 0.344,-0.293 0.648,-0.528 0.5,-0.382 2.672,-2.351 4.746,-4.3 1.625,-1.524 5.918,-5.543 7.078,-6.625 0.668,-0.625 1.575,-1.477 2.008,-1.891 2.559,-2.457 5.102,-4.746 5.328,-4.797 0.227,-0.055 0.266,2 0.266,13.684 v 13.746 h -23.547 c -12.953,0 -23.609,-0.059 -23.676,-0.129 z"
       style="fill:#000000;fill-opacity:1;fill-rule:nonzero;stroke:none"
       id="path1118" /><path
       d="m 1835.309,639.14557 c -0.918,-0.066 -1.883,-0.203 -2.141,-0.308 -0.258,-0.106 -0.738,-0.235 -1.07,-0.282 -0.328,-0.05 -0.719,-0.168 -0.871,-0.261 -0.149,-0.094 -0.477,-0.215 -0.731,-0.27 -0.254,-0.051 -0.543,-0.18 -0.644,-0.281 -0.102,-0.102 -0.27,-0.184 -0.372,-0.184 -0.218,0 -2.445,-1.148 -2.753,-1.422 -0.114,-0.101 -0.27,-0.183 -0.348,-0.183 -0.074,0 -0.242,-0.121 -0.379,-0.27 -0.133,-0.148 -0.293,-0.269 -0.359,-0.269 -0.196,0 -1.336,-0.938 -2.875,-2.36 -1.172,-1.086 -3.258,-3.695 -3.258,-4.078 0,-0.074 -0.09,-0.164 -0.195,-0.207 -0.106,-0.039 -0.231,-0.254 -0.278,-0.472 -0.051,-0.219 -0.176,-0.434 -0.277,-0.473 -0.106,-0.039 -0.188,-0.176 -0.188,-0.305 0,-0.133 -0.121,-0.39 -0.269,-0.578 -0.149,-0.187 -0.27,-0.453 -0.27,-0.586 0,-0.137 -0.121,-0.43 -0.265,-0.648 -0.149,-0.223 -0.266,-0.524 -0.266,-0.676 0,-0.148 -0.094,-0.398 -0.203,-0.559 -0.113,-0.16 -0.242,-0.578 -0.289,-0.933 -0.047,-0.356 -0.164,-0.809 -0.266,-1.008 -0.105,-0.211 -0.246,-1.25 -0.332,-2.445 -0.176,-2.446 0.01,-5.93 0.348,-6.582 0.109,-0.211 0.203,-0.567 0.207,-0.789 0,-0.223 0.121,-0.645 0.265,-0.938 0.141,-0.293 0.262,-0.644 0.262,-0.777 0,-0.133 0.121,-0.465 0.262,-0.739 0.144,-0.269 0.445,-0.89 0.668,-1.375 0.226,-0.484 0.562,-1.105 0.746,-1.378 0.187,-0.274 0.34,-0.543 0.34,-0.598 0,-0.055 0.09,-0.219 0.199,-0.363 0.109,-0.145 0.383,-0.5 0.606,-0.797 0.222,-0.293 0.597,-0.774 0.835,-1.063 0.555,-0.672 2.653,-2.758 3.047,-3.023 0.266,-0.18 0.774,-0.555 1.532,-1.137 0.144,-0.109 0.312,-0.199 0.371,-0.199 0.058,0 0.406,-0.211 0.773,-0.469 0.367,-0.258 0.703,-0.469 0.746,-0.469 0.039,0 0.418,-0.156 0.836,-0.347 1.695,-0.77 2.598,-1.094 3.535,-1.262 0.344,-0.063 0.754,-0.184 0.907,-0.266 0.156,-0.082 1.171,-0.218 2.261,-0.297 2.387,-0.179 6.086,0.008 6.879,0.348 0.274,0.117 0.668,0.219 0.871,0.219 0.203,0.004 0.614,0.121 0.907,0.265 0.296,0.141 0.64,0.258 0.769,0.262 0.223,0.004 0.844,0.278 1.871,0.817 0.274,0.144 0.559,0.261 0.637,0.261 0.078,0 0.441,0.211 0.808,0.469 0.368,0.258 0.715,0.469 0.778,0.469 0.105,0 0.355,0.176 1.097,0.769 0.207,0.164 0.415,0.301 0.469,0.301 0.117,0 0.797,0.617 1.996,1.82 1.184,1.188 1.649,1.719 2.149,2.473 0.218,0.328 0.461,0.656 0.535,0.731 0.144,0.14 0.469,0.671 0.773,1.269 0.094,0.184 0.246,0.414 0.34,0.512 0.09,0.097 0.168,0.273 0.168,0.39 0,0.122 0.086,0.313 0.192,0.426 0.175,0.199 0.324,0.539 0.746,1.754 0.093,0.258 0.246,0.649 0.343,0.871 0.102,0.219 0.243,0.746 0.317,1.172 0.074,0.422 0.191,0.875 0.258,1.004 0.23,0.426 0.441,4.426 0.265,5.012 -0.203,0.679 -1.035,1.316 -1.719,1.316 -0.683,0 -1.562,-0.668 -1.734,-1.316 -0.18,-0.68 -0.367,-2.02 -0.476,-3.367 -0.051,-0.625 -0.176,-1.301 -0.282,-1.5 -0.101,-0.204 -0.187,-0.508 -0.187,-0.68 0,-0.172 -0.121,-0.551 -0.27,-0.84 -0.144,-0.289 -0.265,-0.594 -0.265,-0.68 0,-0.359 -1.688,-3.402 -1.887,-3.402 -0.07,0 -0.121,-0.066 -0.121,-0.145 0,-0.285 -1.66,-2.168 -2.653,-3.019 -1.011,-0.859 -2.207,-1.715 -2.839,-2.024 -0.184,-0.089 -0.426,-0.222 -0.536,-0.292 -0.406,-0.262 -1.121,-0.547 -1.355,-0.547 -0.344,0 -0.473,0.328 -0.562,1.453 -0.047,0.609 -0.161,1.078 -0.286,1.219 -0.113,0.125 -0.207,0.289 -0.207,0.359 0,0.18 -1.218,1.387 -1.402,1.387 -0.078,0 -0.367,0.121 -0.645,0.269 -0.425,0.227 -0.753,0.266 -2.23,0.266 -0.953,0 -1.871,0.054 -2.043,0.121 -0.172,0.062 -0.547,0.344 -0.84,0.617 -0.594,0.563 -0.715,1.047 -0.734,2.898 -0.01,1.047 -0.235,1.825 -0.653,2.247 -0.125,0.128 -0.738,0.367 -1.367,0.535 -1.238,0.332 -1.629,0.601 -2.019,1.41 -0.266,0.547 -0.34,1.348 -0.137,1.473 0.063,0.039 0.148,0.246 0.191,0.457 0.051,0.25 0.282,0.539 0.649,0.808 l 0.566,0.418 h 2.621 c 2.461,0 2.657,0.02 3.184,0.301 0.309,0.164 0.715,0.508 0.902,0.762 l 0.34,0.461 v 18.109 l -0.406,0.555 c -0.336,0.453 -0.524,0.574 -1.078,0.695 -0.371,0.078 -0.715,0.133 -0.766,0.125 -0.051,-0.012 -0.848,-0.074 -1.769,-0.137 z m 0.105,-6.019 c 0.027,-1.469 -0.01,-1.989 -0.133,-2.082 -0.093,-0.067 -0.613,-0.27 -1.152,-0.453 -0.535,-0.18 -1.074,-0.434 -1.191,-0.563 -0.118,-0.129 -0.282,-0.238 -0.368,-0.238 -0.082,0 -0.3,-0.242 -0.48,-0.543 -0.18,-0.301 -0.418,-0.641 -0.524,-0.754 -0.14,-0.152 -0.214,-0.719 -0.273,-2.039 l -0.082,-1.832 -0.453,-0.5 c -1.203,-1.324 -9.547,-9.539 -9.77,-9.621 -0.16,-0.059 -0.316,-0.02 -0.422,0.101 -0.164,0.199 -0.429,2.379 -0.433,3.606 -0.01,1.265 0.301,3.804 0.508,4.207 0.113,0.219 0.207,0.539 0.211,0.707 0,0.168 0.121,0.551 0.261,0.844 0.145,0.293 0.262,0.609 0.262,0.695 0.012,0.355 1.707,3.39 1.895,3.39 0.066,0 0.121,0.067 0.121,0.153 0,0.375 2.511,2.996 3.539,3.695 0.3,0.203 0.566,0.418 0.59,0.473 0.027,0.058 0.238,0.191 0.468,0.301 0.457,0.207 0.77,0.398 1.278,0.769 0.175,0.129 0.425,0.234 0.554,0.234 0.129,0 0.309,0.086 0.399,0.196 0.09,0.109 0.383,0.238 0.652,0.289 0.27,0.051 0.609,0.168 0.754,0.262 0.148,0.093 0.512,0.214 0.805,0.265 0.297,0.051 0.687,0.176 0.871,0.274 0.207,0.113 0.672,0.172 1.207,0.152 l 0.867,-0.031 z"
       style="fill:#000000;fill-opacity:1;fill-rule:nonzero;stroke:none"
       id="path1120" /><path
       d="m 1852.973,639.18857 c -0.473,-0.347 -0.727,-0.746 -1.309,-2.062 -0.156,-0.352 -0.398,-0.895 -0.543,-1.207 -0.144,-0.313 -0.301,-0.735 -0.348,-0.934 -0.046,-0.199 -0.171,-0.43 -0.277,-0.516 -0.101,-0.085 -0.187,-0.25 -0.187,-0.359 0,-0.113 -0.125,-0.48 -0.282,-0.82 -0.511,-1.121 -0.761,-1.688 -0.906,-2.055 -0.086,-0.219 -0.281,-0.398 -0.492,-0.453 -0.297,-0.074 -0.461,0.016 -1.043,0.578 -1.215,1.164 -2.113,1.977 -2.32,2.094 -0.11,0.062 -0.403,0.074 -0.653,0.027 -0.406,-0.074 -0.457,-0.137 -0.531,-0.648 -0.043,-0.309 -0.062,-4.008 -0.039,-8.219 l 0.039,-7.66 0.324,-0.344 c 0.262,-0.277 0.449,-0.344 0.965,-0.344 0.363,0 0.684,0.071 0.746,0.164 0.059,0.094 1.035,1.043 2.172,2.11 2.305,2.168 2.496,2.351 6.289,6.023 2.219,2.145 2.711,2.688 2.781,3.071 0.075,0.406 0.039,0.503 -0.3,0.773 -0.356,0.289 -0.516,0.312 -2.02,0.312 -2.141,0 -2.168,0.043 -1.223,1.743 0.059,0.109 0.149,0.289 0.192,0.402 0.133,0.32 0.531,1.211 0.906,2.031 0.195,0.422 0.352,0.821 0.352,0.891 0,0.066 0.089,0.199 0.199,0.293 0.113,0.09 0.203,0.25 0.203,0.359 0,0.106 0.156,0.535 0.348,0.953 0.875,1.922 0.859,1.805 0.375,2.758 -0.5,0.981 -1.18,1.422 -2.164,1.41 -0.614,-0.008 -0.868,-0.086 -1.254,-0.371 z"
       style="fill:#000000;fill-opacity:1;fill-rule:nonzero;stroke:none"
       id="path1122" /><path
       d="m 1846.324,780.60257 c -0.406,-0.039 -0.84,-0.136 -0.969,-0.222 -0.128,-0.086 -0.457,-0.204 -0.726,-0.258 -0.274,-0.059 -0.684,-0.207 -0.918,-0.332 -0.234,-0.125 -0.52,-0.227 -0.633,-0.227 -0.113,0 -0.32,-0.105 -0.461,-0.23 -0.137,-0.129 -0.394,-0.262 -0.574,-0.297 -0.18,-0.031 -0.398,-0.141 -0.488,-0.238 -0.09,-0.102 -0.328,-0.227 -0.528,-0.282 -0.199,-0.05 -0.363,-0.136 -0.363,-0.187 0,-0.047 -0.219,-0.207 -0.484,-0.352 -0.848,-0.461 -0.981,-0.543 -1.172,-0.715 -0.242,-0.218 -0.785,-0.593 -1.086,-0.75 -0.129,-0.066 -0.328,-0.207 -0.442,-0.312 -0.113,-0.102 -0.386,-0.316 -0.601,-0.473 -0.219,-0.156 -0.527,-0.402 -0.688,-0.543 -0.16,-0.144 -0.324,-0.261 -0.363,-0.261 -0.043,0 -0.199,-0.118 -0.351,-0.262 -0.321,-0.297 -0.977,-0.867 -2.059,-1.789 -0.418,-0.356 -0.852,-0.735 -0.965,-0.836 -0.41,-0.379 -0.457,-0.426 -0.578,-0.543 -0.363,-0.356 -4.535,-4.535 -4.633,-4.637 -0.062,-0.07 -0.16,-0.168 -0.211,-0.219 -0.168,-0.168 -0.613,-0.671 -1,-1.128 -0.207,-0.247 -0.465,-0.543 -0.566,-0.661 -0.516,-0.582 -1.117,-1.285 -1.422,-1.668 -0.184,-0.234 -0.422,-0.531 -0.527,-0.664 -0.582,-0.734 -0.727,-0.922 -0.871,-1.136 -0.086,-0.129 -0.286,-0.407 -0.442,-0.614 -0.156,-0.211 -0.371,-0.539 -0.48,-0.734 -0.106,-0.195 -0.235,-0.356 -0.285,-0.356 -0.051,0 -0.157,-0.14 -0.239,-0.308 -0.226,-0.477 -0.644,-1.172 -0.828,-1.371 -0.09,-0.102 -0.164,-0.25 -0.164,-0.332 0,-0.086 -0.102,-0.274 -0.223,-0.422 -0.125,-0.145 -0.257,-0.41 -0.293,-0.582 -0.039,-0.176 -0.156,-0.406 -0.265,-0.512 -0.106,-0.105 -0.231,-0.363 -0.278,-0.57 -0.046,-0.211 -0.164,-0.481 -0.257,-0.602 -0.098,-0.125 -0.207,-0.426 -0.243,-0.676 -0.035,-0.246 -0.148,-0.589 -0.25,-0.765 -0.218,-0.383 -0.511,-2.91 -0.425,-3.707 0.191,-1.793 0.246,-2.106 0.425,-2.328 0.102,-0.129 0.211,-0.403 0.247,-0.606 0.035,-0.199 0.14,-0.437 0.234,-0.523 0.098,-0.086 0.23,-0.289 0.297,-0.446 0.062,-0.16 0.207,-0.39 0.316,-0.511 0.106,-0.121 0.301,-0.348 0.43,-0.512 0.574,-0.703 1.933,-1.988 2.105,-1.988 0.059,0 0.243,-0.106 0.411,-0.235 0.164,-0.125 0.5,-0.281 0.738,-0.339 0.238,-0.063 0.484,-0.172 0.543,-0.243 0.129,-0.156 1.273,-0.187 1.367,-0.035 0.031,0.051 0.246,0.18 0.477,0.285 0.234,0.106 0.421,0.231 0.421,0.278 0,0.047 0.149,0.277 0.332,0.519 0.184,0.239 0.332,0.481 0.332,0.535 0,0.059 0.106,0.231 0.235,0.387 0.133,0.156 0.238,0.34 0.238,0.41 0,0.071 0.098,0.246 0.219,0.395 0.121,0.148 0.273,0.402 0.34,0.566 0.066,0.168 0.203,0.375 0.3,0.465 0.102,0.09 0.184,0.242 0.184,0.332 0,0.094 0.098,0.289 0.223,0.438 0.121,0.144 0.254,0.363 0.293,0.48 0.035,0.121 0.14,0.293 0.234,0.379 0.094,0.09 0.223,0.328 0.289,0.527 0.063,0.2 0.172,0.383 0.238,0.407 0.067,0.027 0.192,0.238 0.282,0.468 0.086,0.231 0.195,0.418 0.238,0.418 0.039,0 0.141,0.168 0.223,0.375 0.082,0.203 0.211,0.407 0.281,0.449 0.074,0.043 0.183,0.231 0.246,0.422 0.059,0.188 0.195,0.418 0.297,0.512 0.101,0.09 0.183,0.219 0.183,0.281 0,0.063 0.11,0.313 0.239,0.559 0.281,0.527 0.3,1.012 0.058,1.418 -0.097,0.16 -0.226,0.453 -0.289,0.648 -0.062,0.196 -0.156,0.356 -0.207,0.356 -0.051,0 -0.168,0.183 -0.262,0.406 -0.097,0.219 -0.242,0.457 -0.324,0.527 -0.082,0.067 -0.176,0.25 -0.211,0.407 -0.035,0.156 -0.117,0.304 -0.187,0.332 -0.07,0.027 -0.195,0.226 -0.281,0.445 -0.086,0.215 -0.231,0.473 -0.317,0.566 -0.086,0.098 -0.226,0.457 -0.312,0.797 -0.141,0.578 -0.141,0.668 0.011,1.274 0.09,0.355 0.223,0.703 0.301,0.765 0.078,0.063 0.207,0.223 0.289,0.356 0.141,0.226 0.293,0.418 0.832,1.047 0.129,0.152 0.344,0.402 0.473,0.558 0.133,0.16 0.355,0.418 0.5,0.574 0.141,0.157 0.258,0.325 0.258,0.372 0,0.046 0.086,0.113 0.187,0.144 0.102,0.031 0.211,0.145 0.242,0.25 0.079,0.242 3.114,3.274 3.36,3.348 0.097,0.031 0.207,0.14 0.238,0.242 0.031,0.102 0.098,0.187 0.145,0.187 0.046,0 0.214,0.118 0.371,0.258 0.156,0.145 0.414,0.367 0.57,0.5 0.16,0.129 0.41,0.34 0.559,0.473 0.148,0.129 0.472,0.387 0.714,0.566 0.243,0.184 0.551,0.426 0.684,0.539 0.219,0.192 1,0.422 1.426,0.418 0.441,0 1.23,-0.238 1.476,-0.441 0.149,-0.129 0.329,-0.231 0.399,-0.231 0.07,0 0.246,-0.101 0.394,-0.222 0.149,-0.125 0.43,-0.278 0.621,-0.34 0.196,-0.063 0.387,-0.172 0.43,-0.238 0.039,-0.071 0.231,-0.192 0.426,-0.274 0.195,-0.082 0.355,-0.187 0.355,-0.238 0,-0.051 0.207,-0.164 0.465,-0.246 0.258,-0.086 0.52,-0.219 0.582,-0.293 0.071,-0.09 0.289,-0.137 0.61,-0.137 0.32,0 0.539,0.051 0.609,0.137 0.063,0.074 0.32,0.203 0.574,0.289 0.25,0.082 0.481,0.207 0.508,0.277 0.027,0.075 0.211,0.184 0.41,0.246 0.199,0.067 0.438,0.196 0.531,0.293 0.09,0.098 0.227,0.176 0.293,0.176 0.071,0 0.286,0.129 0.485,0.285 0.195,0.157 0.433,0.285 0.531,0.285 0.094,0 0.215,0.083 0.27,0.184 0.05,0.098 0.257,0.231 0.453,0.293 0.195,0.063 0.402,0.172 0.457,0.242 0.058,0.071 0.293,0.207 0.523,0.309 0.231,0.097 0.477,0.246 0.547,0.332 0.07,0.086 0.203,0.156 0.293,0.156 0.09,0 0.238,0.082 0.332,0.188 0.094,0.101 0.356,0.254 0.582,0.343 0.227,0.086 0.414,0.192 0.414,0.235 0,0.043 0.18,0.156 0.402,0.258 0.223,0.097 0.461,0.246 0.532,0.335 0.074,0.086 0.207,0.157 0.297,0.157 0.093,0 0.222,0.066 0.289,0.148 0.066,0.078 0.308,0.254 0.531,0.387 0.226,0.133 0.41,0.277 0.41,0.328 0,0.047 0.109,0.254 0.238,0.461 0.289,0.457 0.336,1.348 0.086,1.621 -0.082,0.09 -0.191,0.344 -0.238,0.566 -0.051,0.219 -0.195,0.524 -0.324,0.676 -0.129,0.153 -0.235,0.332 -0.235,0.399 0,0.066 -0.132,0.265 -0.293,0.441 -0.546,0.598 -1.406,1.457 -1.699,1.695 -0.16,0.129 -0.386,0.325 -0.504,0.426 -0.117,0.106 -0.39,0.274 -0.605,0.367 -0.215,0.098 -0.41,0.231 -0.438,0.301 -0.023,0.067 -0.218,0.149 -0.429,0.184 -0.211,0.035 -0.489,0.148 -0.618,0.25 -0.417,0.328 -2.871,0.465 -4.906,0.269 z"
       style="fill:#000000;fill-opacity:1;fill-rule:nonzero;stroke:none"
       id="path1124" /><text
       xml:space="preserve"
       style="font-style:normal;font-variant:normal;font-weight:normal;font-stretch:normal;font-size:30px;line-height:1.25;font-family:'Century Gothic';-inkscape-font-specification:'Century Gothic';fill:#000000;fill-opacity:1;stroke:none;stroke-width:0.75"
       x="2513.6719"
       y="498.04678"
       id="text40710"><tspan
         sodipodi:role="line"
         id="tspan40708"
         style="font-style:normal;font-variant:normal;font-weight:normal;font-stretch:normal;font-family:'Century Gothic';-inkscape-font-specification:'Century Gothic';stroke-width:0.75"
         x="2513.6719"
         y="498.04678" /></text><text
       xml:space="preserve"
       style="font-style:normal;font-weight:normal;font-size:34.2218px;line-height:1.25;font-family:sans-serif;fill:#000000;fill-opacity:1;stroke:none;stroke-width:0.75"
       x="1876.1514"
       y="484.62048"
       id="text46608"><tspan
         sodipodi:role="line"
         style="font-style:normal;font-variant:normal;font-weight:normal;font-stretch:normal;font-size:34.2218px;font-family:'Century Gothic';-inkscape-font-specification:'Century Gothic';stroke-width:0.75"
         x="1876.1514"
         y="484.62048"
         id="tspan53942">Kansas City, MO</tspan></text><text
       xml:space="preserve"
       style="font-style:normal;font-weight:normal;font-size:34.2218px;line-height:1.25;font-family:sans-serif;fill:#000000;fill-opacity:1;stroke:none;stroke-width:0.75"
       x="1874.6809"
       y="770.60266"
       id="text46608-7"><tspan
         sodipodi:role="line"
         style="font-style:normal;font-variant:normal;font-weight:normal;font-stretch:normal;font-size:34.2218px;font-family:'Century Gothic';-inkscape-font-specification:'Century Gothic';stroke-width:0.75"
         x="1874.6809"
         y="770.60266"
         id="tspan53942-8">(816) 838-4117</tspan></text><g
       id="g229258"
       transform="translate(0,21.889726)"><text
         style="font-variant:normal;font-weight:bold;font-size:40.6511px;font-family:'Century Gothic';-inkscape-font-specification:CenturyGothic-Bold;writing-mode:lr-tb;fill:#000000;fill-opacity:1;fill-rule:nonzero;stroke:none"
         id="text1024"
         x="38.305172"
         y="1502.0912"><tspan
           x="38.305172 59.443741 85.460442 96.802101 108.95678 141.31506 168.14479 181.11249 207.1292 218.47084 246.92662 272.9433 295.70795 321.72464 331.44025 357.45694 384.28668 410.42532"
           y="1502.0912"
           sodipodi:role="line"
           id="tspan1022">Software Developer</tspan></text><text
         style="font-variant:normal;font-weight:bold;font-size:34.4489px;font-family:'Century Gothic';-inkscape-font-specification:CenturyGothic-Bold;writing-mode:lr-tb;white-space:pre;inline-size:871.265;fill:#000000;fill-opacity:1;fill-rule:nonzero;stroke:none"
         id="text1032"
         x="36.091301"
         y="1557.2876"
         xml:space="preserve"><tspan
           x="36.091301"
           y="1557.2876"
           id="tspan8068">@Northwest Missouri State University</tspan></text><text
         xml:space="preserve"
         style="font-style:normal;font-weight:normal;font-size:34.4484px;line-height:1.25;font-family:sans-serif;fill:#000000;fill-opacity:1;stroke:none;stroke-width:0.861209"
         x="1395.1232"
         y="1496.9684"
         id="text22849"><tspan
           sodipodi:role="line"
           id="tspan22847"
           style="font-style:normal;font-variant:normal;font-weight:normal;font-stretch:normal;font-family:'Century Gothic';-inkscape-font-specification:'Century Gothic';stroke-width:0.861209"
           x="1395.1232"
           y="1496.9684">May 2019 - May 2020</tspan></text></g><text
       xml:space="preserve"
       style="font-style:normal;font-weight:normal;font-size:35px;line-height:1.25;font-family:sans-serif;fill:#000000;fill-opacity:1;stroke:none;stroke-width:0.75"
       x="36.094845"
       y="1948.5139"
       id="text139369"><tspan
         sodipodi:role="line"
         id="tspan139367"
         style="font-style:normal;font-variant:normal;font-weight:normal;font-stretch:normal;font-size:35px;font-family:'Century Gothic';-inkscape-font-specification:'Century Gothic';stroke-width:0.75"
         x="36.094845"
         y="1948.5139">Workshop Manager</tspan><tspan
         sodipodi:role="line"
         style="font-style:normal;font-variant:normal;font-weight:normal;font-stretch:normal;font-size:35px;font-family:'Century Gothic';-inkscape-font-specification:'Century Gothic';stroke-width:0.75"
         x="36.094845"
         y="1992.4199"
         id="tspan139371">    Application used by NW staff &amp; faculty to set appointments and manage campus events.</tspan><tspan
         sodipodi:role="line"
         style="font-style:normal;font-variant:normal;font-weight:normal;font-stretch:normal;font-size:35px;font-family:'Century Gothic';-inkscape-font-specification:'Century Gothic';stroke-width:0.75"
         x="36.094845"
         y="2036.3258"
         id="tspan139373">    Revamped the entire UI to improve efficiency in user experience.</tspan><tspan
         sodipodi:role="line"
         style="font-style:normal;font-variant:normal;font-weight:normal;font-stretch:normal;font-size:35px;font-family:'Century Gothic';-inkscape-font-specification:'Century Gothic';stroke-width:0.75"
         x="36.094845"
         y="2080.2317"
         id="tspan139375">    • ASP.NET / C#</tspan><tspan
         sodipodi:role="line"
         style="font-style:normal;font-variant:normal;font-weight:normal;font-stretch:normal;font-size:35px;font-family:'Century Gothic';-inkscape-font-specification:'Century Gothic';stroke-width:0.75"
         x="36.094845"
         y="2124.1377"
         id="tspan139377">    • HTML / CSS</tspan><tspan
         sodipodi:role="line"
         style="font-style:normal;font-variant:normal;font-weight:normal;font-stretch:normal;font-size:35px;font-family:'Century Gothic';-inkscape-font-specification:'Century Gothic';stroke-width:0.75"
         x="36.094845"
         y="2168.0437"
         id="tspan139391">    • Javascript / jQuery</tspan></text><text
       xml:space="preserve"
       style="font-style:normal;font-weight:normal;font-size:34.9998px;line-height:1.25;font-family:sans-serif;fill:#000000;fill-opacity:1;stroke:none;stroke-width:0.749996"
       x="36.094845"
       y="2227.9629"
       id="text152637"><tspan
         sodipodi:role="line"
         id="tspan152635"
         style="font-style:normal;font-variant:normal;font-weight:normal;font-stretch:normal;font-size:34.9998px;font-family:'Century Gothic';-inkscape-font-specification:'Century Gothic';stroke-width:0.749996"
         x="36.094845"
         y="2227.9629">Web Time Clock</tspan><tspan
         sodipodi:role="line"
         style="font-style:normal;font-variant:normal;font-weight:normal;font-stretch:normal;font-size:34.9998px;font-family:'Century Gothic';-inkscape-font-specification:'Century Gothic';stroke-width:0.749996"
         x="36.094845"
         y="2271.8687"
         id="tspan152639">    Tool used by NW staff &amp; faculty to clock in/out of work via card-swipe or ID number.</tspan><tspan
         sodipodi:role="line"
         style="font-style:normal;font-variant:normal;font-weight:normal;font-stretch:normal;font-size:34.9998px;font-family:'Century Gothic';-inkscape-font-specification:'Century Gothic';stroke-width:0.749996"
         x="36.094845"
         y="2315.7742"
         id="tspan152641">    Updated/debugged the application that allows users to track all their attendances.</tspan><tspan
         sodipodi:role="line"
         style="font-style:normal;font-variant:normal;font-weight:normal;font-stretch:normal;font-size:34.9998px;font-family:'Century Gothic';-inkscape-font-specification:'Century Gothic';stroke-width:0.749996"
         x="36.094845"
         y="2359.6799"
         id="tspan152643">    • ASP.NET / C#</tspan><tspan
         sodipodi:role="line"
         style="font-style:normal;font-variant:normal;font-weight:normal;font-stretch:normal;font-size:34.9998px;font-family:'Century Gothic';-inkscape-font-specification:'Century Gothic';stroke-width:0.749996"
         x="36.094845"
         y="2403.5857"
         id="tspan152645">    • HTML / CSS</tspan></text><g
       id="g247388"
       transform="translate(0,-15.12181)"><text
         xml:space="preserve"
         style="font-style:normal;font-weight:normal;font-size:34.4489px;line-height:1.25;font-family:sans-serif;fill:#000000;fill-opacity:1;stroke:none;stroke-width:0.75"
         x="1585.8187"
         y="773.61475"
         id="text191275-9"><tspan
           sodipodi:role="line"
           id="tspan191273-8"
           style="font-style:normal;font-variant:normal;font-weight:normal;font-stretch:normal;font-size:34.4489px;font-family:'Century Gothic';-inkscape-font-specification:'Century Gothic';stroke-width:0.75"
           x="1585.8187"
           y="773.61475">May 2018</tspan></text><text
         style="font-variant:normal;font-weight:bold;font-size:40.6511px;font-family:'Century Gothic';-inkscape-font-specification:CenturyGothic-Bold;writing-mode:lr-tb;fill:#000000;fill-opacity:1;fill-rule:nonzero;stroke:none"
         id="text952"
         x="47.448479"
         y="793.82593"><tspan
           x="47.448479 77.489639 95.335472 113.05935 139.07605 165.09276 174.80836 201.63809 213.79277 239.80948 251.02917 277.0459 288.38754 299.72919 329.77036 342.61612 354.77078"
           y="793.82593"
           sodipodi:role="line"
           id="tspan950">Associate of Arts</tspan></text><text
         style="font-variant:normal;font-weight:normal;font-size:34.4489px;font-family:'Century Gothic';-inkscape-font-specification:CenturyGothic;writing-mode:lr-tb;fill:#000000;fill-opacity:1;fill-rule:nonzero;stroke:none"
         id="text958"
         x="84.568787"
         y="834.76501"><tspan
           x="84.568787 116.19287 138.5502 150.19394 160.52859 183.05818 206.55232 229.08191 235.97169 242.75812 254.50519 278.03378 299.01315 308.52106 336.39023 358.9198 391.19843 423.37369 444.28418 465.09131 471.98108 483.62482 502.08942 511.59732 539.56982 562.09937 568.98914 575.87897 598.23627 621.38593"
           y="834.76501"
           sodipodi:role="line"
           id="tspan954">Metropolitan Community College</tspan><tspan
           x="45.41021 83.407341 103.73219 127.26079 148.24016 161.60634 185.13493 198.5011 208.009 235.98151 242.87129 254.51501 272.97961 282.48752 291.99539 323.61951"
           y="878.59167"
           sodipodi:role="line"
           id="tspan956"> Kansas City, MO</tspan></text><g
         id="g247183"
         transform="translate(0,8.6555512)"><text
           xml:space="preserve"
           style="font-style:normal;font-weight:normal;font-size:40.6511px;line-height:1.25;font-family:sans-serif;white-space:pre;inline-size:1400.93;fill:#000000;fill-opacity:1;stroke:none;stroke-width:0.75"
           x="44.808598"
           y="489.43616"
           id="text172808"><tspan
             x="44.808598"
             y="489.43616"
             id="tspan8072"><tspan
               style="font-weight:bold;font-family:'Century Gothic';-inkscape-font-specification:'Century Gothic Bold'"
               id="tspan8070">Professional Certificate — Google UX Design Specialization</tspan></tspan></text><text
           xml:space="preserve"
           style="font-style:normal;font-weight:normal;font-size:34.4489px;line-height:1.25;font-family:sans-serif;fill:#000000;fill-opacity:1;stroke:none;stroke-width:0.75"
           x="1550.7136"
           y="490.79153"
           id="text191275"><tspan
             sodipodi:role="line"
             id="tspan191273"
             style="font-style:normal;font-variant:normal;font-weight:normal;font-stretch:normal;font-size:34.4489px;font-family:'Century Gothic';-inkscape-font-specification:'Century Gothic';stroke-width:0.75"
             x="1550.7136"
             y="490.79153">March 2022</tspan></text></g><text
         xml:space="preserve"
         style="font-style:normal;font-weight:normal;font-size:34.4489px;line-height:1.25;font-family:sans-serif;fill:#000000;fill-opacity:1;stroke:none;stroke-width:0.75"
         x="43.543106"
         y="546.45978"
         id="text199673"><tspan
           sodipodi:role="line"
           id="tspan199671"
           style="font-style:normal;font-variant:normal;font-weight:normal;font-stretch:normal;font-size:34.4489px;font-family:'Century Gothic';-inkscape-font-specification:'Century Gothic';stroke-width:0.75"
           x="43.543106"
           y="546.45978">    Coursera Course by Google</tspan></text><text
         style="font-variant:normal;font-weight:normal;font-size:34.4489px;font-family:'Century Gothic';-inkscape-font-specification:CenturyGothic;writing-mode:lr-tb;fill:#000000;fill-opacity:1;fill-rule:nonzero;stroke:none"
         id="text936"
         x="1585.842"
         y="622.67072"><tspan
           x="1585.842 1617.4661 1640.9946 1659.4594 1668.9672 1688.0519 1707.1366 1726.2213"
           y="622.67072"
           sodipodi:role="line"
           id="tspan934">May 2020</tspan></text><text
         style="font-variant:normal;font-weight:bold;font-size:40.6511px;font-family:'Century Gothic';-inkscape-font-specification:CenturyGothic-Bold;writing-mode:lr-tb;fill:#000000;fill-opacity:1;fill-rule:nonzero;stroke:none"
         id="text940"
         x="44.78875"
         y="624.62939"><tspan
           x="44.78875 68.366386 95.196114 121.21281 145.60347 171.62018 181.33578 207.35249 220.32019 231.53989 257.55661 268.89825 280.23993 301.37848 327.3952 336.98886 363.00555 387.39621 413.41293 439.42963 450.77127 491.42239 502.76404 534.30927 560.32599 598.49738 625.32709 649.71777 661.87244 687.88916 700.73486 712.07654 733.21515 759.23181 768.94745 794.96411 819.3548 845.37152"
           y="624.62939"
           sodipodi:role="line"
           id="tspan938">Bachelor of Science — Computer Science</tspan></text><text
         xml:space="preserve"
         style="font-style:normal;font-weight:normal;font-size:34.4489px;line-height:1.25;font-family:sans-serif;fill:#000000;fill-opacity:1;stroke:none;stroke-width:0.75"
         x="46.537216"
         y="672.91266"
         id="text233596"><tspan
           sodipodi:role="line"
           id="tspan233594"
           style="font-style:normal;font-variant:normal;font-weight:normal;font-stretch:normal;font-size:34.4489px;font-family:'Century Gothic';-inkscape-font-specification:'Century Gothic';stroke-width:0.75"
           x="46.537216"
           y="672.91266">    Northwest Missouri State University</tspan><tspan
           sodipodi:role="line"
           style="font-style:normal;font-variant:normal;font-weight:normal;font-stretch:normal;font-size:34.4489px;font-family:'Century Gothic';-inkscape-font-specification:'Century Gothic';stroke-width:0.75"
           x="46.537216"
           y="716.12726"
           id="tspan233620">    Maryville, MO</tspan></text></g><g
       id="g316629"
       transform="translate(0,-106.28234)"><text
         style="font-variant:normal;font-weight:bold;font-size:34.4489px;font-family:'Century Gothic';-inkscape-font-specification:CenturyGothic-Bold;writing-mode:lr-tb;fill:#000000;fill-opacity:1;fill-rule:nonzero;stroke:none"
         id="text908"
         x="1811.8602"
         y="1451.6501"><tspan
           x="1811.8602 1826.2943 1848.3416 1870.3889 1878.6222"
           y="1451.6501"
           sodipodi:role="line"
           id="tspan906">Tools</tspan></text><text
         xml:space="preserve"
         style="font-style:normal;font-weight:normal;font-size:34.4483px;line-height:1.25;font-family:sans-serif;fill:#000000;fill-opacity:1;stroke:none;stroke-width:0.75"
         x="1812.8021"
         y="1495.0208"
         id="text252610"><tspan
           sodipodi:role="line"
           id="tspan252608"
           style="font-style:normal;font-variant:normal;font-weight:normal;font-stretch:normal;font-size:34.4483px;font-family:'Century Gothic';-inkscape-font-specification:'Century Gothic';stroke-width:0.75"
           x="1812.8021"
           y="1495.0208">    Github/GitLab, Figma,</tspan><tspan
           sodipodi:role="line"
           style="font-style:normal;font-variant:normal;font-weight:normal;font-stretch:normal;font-size:34.4483px;font-family:'Century Gothic';-inkscape-font-specification:'Century Gothic';stroke-width:0.75"
           x="1812.8021"
           y="1538.2346"
           id="tspan252614">    Android SDK, Microsoft Office,</tspan><tspan
           sodipodi:role="line"
           style="font-style:normal;font-variant:normal;font-weight:normal;font-stretch:normal;font-size:34.4483px;font-family:'Century Gothic';-inkscape-font-specification:'Century Gothic';stroke-width:0.75"
           x="1812.8021"
           y="1581.4485"
           id="tspan269506">    MySQL Workbench, XCode</tspan></text></g></g></svg>
